# xmcd
#
# Track frame offsets:
# 150
# 12857
# 27522
# 43492
# 58402
# 72267
# 84355
# 97517
# 117117
# 133962
# 150925
# 161647
#
# Disc length: 2353 seconds
#
#
# Revision: 0
# Processed by: cddbd v1.5.1PL0 Copyright (c) Steve Scherf et al.
# Submitted via: FreeRIP 2.70 
#
DISCID=98092f0c
DTITLE=Davis, Mac - 36 All-Time Greatest Hits - Disc 3
DYEAR=2000
DGENRE=Country
TTITLE0=Hello L.A., Bye Bye Birmingham
TTITLE1=I'll Paint You A Song
TTITLE2=Music In My Life
TTITLE3=Every Now And Then
TTITLE4=I Still Love You (You Still Love Me)
TTITLE5=Naughty Girl
TTITLE6=The Hits Just Keep On Coming
TTITLE7=It's Hard To Be Humble
TTITLE8=Let's Keep It That Way
TTITLE9=Hooked On Music
TTITLE10=You're My Bestest Friend
TTITLE11=I Never Made Love (Till I Made Love With You)
EXTD=Entered By Itaot...
EXTT0=
EXTT1=
EXTT2=
EXTT3=
EXTT4=
EXTT5=
EXTT6=
EXTT7=
EXTT8=
EXTT9=
EXTT10=
EXTT11=
PLAYORDER=
